<?xml version="1.0" standalone="no"?>
<!DOCTYPE svg PUBLIC "-//W3C//DTD SVG 20010904//EN"
 "http://www.w3.org/TR/2001/REC-SVG-20010904/DTD/svg10.dtd">
<svg version="1.0" xmlns="http://www.w3.org/2000/svg"
 width="1080.000000pt" height="1080.000000pt" viewBox="0 0 1080.000000 1080.000000"
 preserveAspectRatio="xMidYMid meet">
<metadata>
Created by potrace 1.14, written by Peter Selinger 2001-2017
</metadata>
<g transform="translate(0.000000,1080.000000) scale(0.100000,-0.100000)"
fill="#000000" stroke="none">
<path d="M0 5400 l0 -5400 5400 0 5400 0 0 5400 0 5400 -5400 0 -5400 0 0
-5400z m5715 2956 c387 -61 656 -145 965 -301 669 -340 1218 -920 1500 -1590
115 -271 208 -624 238 -900 9 -77 -1 -602 -12 -675 -3 -19 -11 -75 -17 -125
-25 -196 -116 -523 -207 -740 -166 -396 -433 -791 -710 -1048 -29 -27 -52 -52
-52 -56 0 -25 97 -123 150 -151 14 -7 70 -15 125 -18 114 -5 159 -22 229 -83
25 -22 57 -65 73 -96 24 -49 27 -69 27 -143 -1 -70 -5 -96 -26 -141 -90 -194
-315 -280 -558 -212 -102 28 -183 87 -374 273 -134 130 -182 170 -184 157 -2
-11 -37 -34 -90 -61 -97 -48 -130 -66 -152 -83 -52 -40 -369 -150 -570 -198
-210 -50 -412 -77 -665 -91 -124 -7 -359 11 -555 42 -423 67 -879 248 -1228
489 -41 27 -92 62 -115 78 -74 49 -239 191 -358 308 -353 347 -604 738 -767
1194 -181 509 -231 1065 -143 1585 67 389 171 679 371 1030 209 367 601 789
955 1029 471 320 928 482 1520 540 133 13 512 5 630 -13z m-2715 -52 c112 -33
235 -165 261 -278 51 -227 -84 -446 -302 -492 -86 -18 -190 -8 -266 26 -70 31
-175 143 -202 215 -66 176 -12 367 131 471 28 20 66 43 85 50 81 34 194 37
293 8z"/>
<path d="M5090 7789 c-140 -11 -382 -61 -538 -110 -428 -133 -798 -368 -1105
-701 -345 -374 -585 -874 -654 -1363 -22 -151 -25 -585 -5 -720 82 -568 356
-1096 786 -1519 142 -139 185 -173 371 -300 352 -239 721 -370 1185 -420 74
-8 142 -16 150 -19 8 -2 12 -2 8 0 -5 3 -8 69 -8 148 l0 144 47 53 c25 29 95
101 154 159 l109 107 -163 -5 c-448 -15 -851 107 -1222 370 -108 77 -293 251
-379 356 -208 254 -358 581 -423 922 -24 129 -27 166 -27 354 0 186 3 226 28
355 111 592 475 1087 1006 1373 167 90 403 170 575 197 l80 12 63 79 c130 163
412 450 479 488 10 5 16 12 13 15 -3 2 -77 9 -165 15 -88 7 -182 13 -210 15
-27 2 -97 0 -155 -5z"/>
<path d="M5210 6559 c-122 -8 -193 -23 -305 -61 -378 -129 -681 -431 -816
-813 -79 -224 -96 -483 -48 -739 23 -126 110 -339 182 -446 222 -330 509 -530
862 -601 90 -18 375 -18 470 -1 280 53 546 201 725 403 181 206 305 453 345
693 21 125 19 329 -4 468 -60 346 -266 675 -541 864 -265 182 -542 256 -870
233z"/>
<path d="M7711 4314 c0 -11 3 -14 6 -6 3 7 2 16 -1 19 -3 4 -6 -2 -5 -13z"/>
<path d="M7657 4191 c-4 -17 -3 -21 5 -13 5 5 8 16 6 23 -3 8 -7 3 -11 -10z"/>
<path d="M7566 3995 c-9 -26 -7 -32 5 -12 6 10 9 21 6 23 -2 3 -7 -2 -11 -11z"/>
<path d="M7520 3920 c-6 -11 -8 -20 -6 -20 3 0 10 9 16 20 6 11 8 20 6 20 -3
0 -10 -9 -16 -20z"/>
<path d="M7421 3758 c-40 -62 -125 -171 -175 -225 -23 -26 -26 -33 -13 -33 9
0 17 -4 17 -10 0 -5 4 -10 9 -10 5 0 7 9 4 20 -4 16 -2 19 11 14 12 -4 16 0
16 16 0 13 4 19 11 14 8 -5 10 1 7 19 -3 15 -2 24 3 22 4 -3 10 -1 14 5 4 6
10 8 14 6 4 -3 20 7 35 21 21 19 25 28 15 34 -10 6 -8 13 10 28 14 13 19 21
11 21 -9 0 -7 5 5 14 11 8 23 12 28 9 4 -2 7 11 5 31 -1 20 -3 36 -4 36 -1 0
-12 -15 -23 -32z"/>
<path d="M7190 3460 c0 -5 5 -10 10 -10 6 0 10 5 10 10 0 6 -4 10 -10 10 -5 0
-10 -4 -10 -10z"/>
<path d="M7076 3298 c69 -84 104 -120 104 -110 0 13 -56 80 -82 100 -10 7 -18
20 -18 28 0 8 -7 14 -16 14 -12 0 -9 -8 12 -32z"/>
<path d="M7380 2965 c13 -14 26 -25 28 -25 3 0 -5 11 -18 25 -13 14 -26 25
-28 25 -3 0 5 -11 18 -25z"/>
<path d="M6370 2876 c-118 -50 -190 -87 -190 -96 0 -6 6 -10 13 -10 6 0 35
-22 62 -47 123 -116 190 -173 204 -173 8 0 25 -10 39 -22 13 -13 23 -18 22
-13 -5 22 1 27 15 15 12 -10 15 -10 15 1 0 9 3 9 13 -3 23 -30 56 -28 93 4 18
16 34 37 34 45 0 8 4 12 9 9 4 -3 16 3 26 14 10 11 14 21 9 21 -5 1 -22 3 -38
5 -40 4 -43 12 -10 25 23 9 35 8 59 -6 17 -9 -24 38 -90 104 -92 93 -129 124
-164 136 -56 19 -55 19 -121 -9z"/>
<path d="M6147 2769 c7 -7 15 -10 18 -7 3 3 -2 9 -12 12 -14 6 -15 5 -6 -5z"/>
<path d="M6010 2730 c-21 -7 -21 -8 -5 -9 11 0 27 4 35 9 18 11 5 11 -30 0z"/>
<path d="M5958 2713 c7 -3 16 -2 19 1 4 3 -2 6 -13 5 -11 0 -14 -3 -6 -6z"/>
<path d="M5908 2703 c6 -2 18 -2 25 0 6 3 1 5 -13 5 -14 0 -19 -2 -12 -5z"/>
<path d="M5825 2684 l-40 -14 44 4 c24 2 48 9 54 15 15 15 -7 13 -58 -5z"/>
<path d="M5743 2663 c9 -2 23 -2 30 0 6 3 -1 5 -18 5 -16 0 -22 -2 -12 -5z"/>
<path d="M5668 2653 c12 -2 30 -2 40 0 9 3 -1 5 -23 4 -22 0 -30 -2 -17 -4z"/>
<path d="M5548 2643 c18 -2 45 -2 60 0 15 2 0 4 -33 4 -33 0 -45 -2 -27 -4z"/>
<path d="M5368 2633 c29 -2 74 -2 100 0 26 2 2 3 -53 3 -55 0 -76 -1 -47 -3z"/>
<path d="M6820 2576 c0 -2 8 -10 18 -17 15 -13 16 -12 3 4 -13 16 -21 21 -21
13z"/>
</g>
</svg>
